<?xml version="1.0" encoding="iso-8859-1"?>
<!-- Generator: Adobe Illustrator 19.0.0, SVG Export Plug-In . SVG Version: 6.00 Build 0)  -->
<svg version="1.1" id="Layer_1" xmlns="http://www.w3.org/2000/svg" xmlns:xlink="http://www.w3.org/1999/xlink" x="0px" y="0px"
	 viewBox="0 0 457.294 457.294" style="enable-background:new 0 0 457.294 457.294;" xml:space="preserve">
<g>
	<g>
		<g>
			<path d="M274.12,349.24c-6.001,6.004-13.561,10.13-21.867,11.931l-84.112,18.221c-14.112,3.055-29.469-0.845-40.548-11.926
				c-2.387-2.387-4.444-5.009-6.193-7.792H69.953c-8.124,0-14.71-6.586-14.71-14.71c0-8.124,6.586-14.71,14.71-14.71h45.136
				c0.154-1.113,0.337-2.226,0.577-3.336l8.898-41.073H69.953c-8.124,0-14.71-6.586-14.71-14.71c0-8.124,6.586-14.71,14.71-14.71
				h60.984l2.95-13.619c1.798-8.299,5.923-15.859,11.925-21.86l8.929-8.929H69.953c-8.124,0-14.71-6.586-14.71-14.71
				c0-8.124,6.586-14.71,14.71-14.71h114.21l44.408-44.408H69.953c-8.124,0-14.71-6.586-14.71-14.71
				c0-8.124,6.586-14.71,14.71-14.71h188.039c8.146-8.146,61.659-61.659,70.014-70.014c2.709-2.708,5.573-5.202,8.547-7.519
				C336.023,13.921,321.786,0,304.349,0H36.065C18.294,0,3.834,14.459,3.834,32.231v392.833c0,17.771,14.459,32.23,32.23,32.23
				h268.284c17.772,0,32.23-14.459,32.23-32.23V286.781C330.693,292.666,282.177,341.183,274.12,349.24z"/>
			<path d="M435.505,59.553c-11.578-11.579-26.973-17.954-43.347-17.954c-16.374,0-31.768,6.375-43.347,17.954
				c-9.29,9.29-173.453,173.453-182.194,182.195c-1.943,1.942-3.361,4.452-3.975,7.287c-2.431,11.223-16.162,74.609-18.221,84.111
				c-1.054,4.865,0.423,9.964,3.975,13.516c3.541,3.542,8.635,5.033,13.516,3.975c11.251-2.437,74.706-16.183,84.111-18.221
				c2.828-0.613,5.344-2.029,7.287-3.975c198.609-198.61,185.081-184.37,189.884-191.549c6.719-10.042,10.265-21.785,10.265-33.992
				C453.461,86.526,447.085,71.131,435.505,59.553z M178.012,317.046l11.378-52.525l41.147,41.147L178.012,317.046z"/>
		</g>
	</g>
</g>
<g>
</g>
<g>
</g>
<g>
</g>
<g>
</g>
<g>
</g>
<g>
</g>
<g>
</g>
<g>
</g>
<g>
</g>
<g>
</g>
<g>
</g>
<g>
</g>
<g>
</g>
<g>
</g>
<g>
</g>
</svg>
