<svg width="457.294" height="457.294" xmlns="http://www.w3.org/2000/svg">

 <g>
  <title>background</title>
  <rect fill="none" id="canvas_background" height="402" width="582" y="-1" x="-1"/>
 </g>
 <g>
  <title>Layer 1</title>
  <g id="svg_1">
   <g id="svg_2">
    <g id="svg_3">
     <path fill="#ffffff" id="svg_4" d="m274.12,349.24c-6.001,6.004 -13.561,10.13 -21.867,11.931l-84.112,18.221c-14.112,3.055 -29.469,-0.845 -40.548,-11.926c-2.387,-2.387 -4.444,-5.009 -6.193,-7.792l-51.447,0c-8.124,0 -14.71,-6.586 -14.71,-14.71c0,-8.124 6.586,-14.71 14.71,-14.71l45.136,0c0.154,-1.113 0.337,-2.226 0.577,-3.336l8.898,-41.073l-54.611,0c-8.124,0 -14.71,-6.586 -14.71,-14.71c0,-8.124 6.586,-14.71 14.71,-14.71l60.984,0l2.95,-13.619c1.798,-8.299 5.923,-15.859 11.925,-21.86l8.929,-8.929l-84.788,0c-8.124,0 -14.71,-6.586 -14.71,-14.71c0,-8.124 6.586,-14.71 14.71,-14.71l114.21,0l44.408,-44.408l-158.618,0c-8.124,0 -14.71,-6.586 -14.71,-14.71c0,-8.124 6.586,-14.71 14.71,-14.71l188.039,0c8.146,-8.146 61.659,-61.659 70.014,-70.014c2.709,-2.708 5.573,-5.202 8.547,-7.519c-0.53,-17.315 -14.767,-31.236 -32.204,-31.236l-268.284,0c-17.771,0 -32.231,14.459 -32.231,32.231l0,392.833c0,17.771 14.459,32.23 32.23,32.23l268.284,0c17.772,0 32.23,-14.459 32.23,-32.23l0,-138.283c-5.885,5.885 -54.401,54.402 -62.458,62.459z"/>
     <path fill="#ffffff" id="svg_5" d="m435.505,59.553c-11.578,-11.579 -26.973,-17.954 -43.347,-17.954c-16.374,0 -31.768,6.375 -43.347,17.954c-9.29,9.29 -173.453,173.453 -182.194,182.195c-1.943,1.942 -3.361,4.452 -3.975,7.287c-2.431,11.223 -16.162,74.609 -18.221,84.111c-1.054,4.865 0.423,9.964 3.975,13.516c3.541,3.542 8.635,5.033 13.516,3.975c11.251,-2.437 74.706,-16.183 84.111,-18.221c2.828,-0.613 5.344,-2.029 7.287,-3.975c198.609,-198.61 185.081,-184.37 189.884,-191.549c6.719,-10.042 10.265,-21.785 10.265,-33.992c0.002,-16.374 -6.374,-31.769 -17.954,-43.347zm-257.493,257.493l11.378,-52.525l41.147,41.147l-52.525,11.378z"/>
    </g>
   </g>
  </g>
  <g id="svg_6"/>
  <g id="svg_7"/>
  <g id="svg_8"/>
  <g id="svg_9"/>
  <g id="svg_10"/>
  <g id="svg_11"/>
  <g id="svg_12"/>
  <g id="svg_13"/>
  <g id="svg_14"/>
  <g id="svg_15"/>
  <g id="svg_16"/>
  <g id="svg_17"/>
  <g id="svg_18"/>
  <g id="svg_19"/>
  <g id="svg_20"/>
 </g>
</svg>